HIERARCHY
ROOT Hips
{
	OFFSET 0.000000 0.000000 0.000000
	CHANNELS 6 Xposition Yposition Zposition Xrotation Yrotation Zrotation
	JOINT LeftUpLeg_virtual
	{
		OFFSET 0.000000 0.000000 0.000000
		CHANNELS 3 Xrotation Yrotation Zrotation
		JOINT LeftUpLeg
		{
			OFFSET 13.026900 -6.336304 -1.092800
			CHANNELS 3 Xrotation Yrotation Zrotation
			JOINT LeftLeg
			{
				OFFSET 0.524474 -46.096886 9.782700
				CHANNELS 3 Xrotation Yrotation Zrotation
				JOINT LeftFoot
				{
					OFFSET -0.524474 -53.427422 -12.948200
					CHANNELS 3 Xrotation Yrotation Zrotation
					JOINT LeftToeBase
					{
						OFFSET 0.192200 -14.009700 16.364100
						CHANNELS 3 Xrotation Yrotation Zrotation
						JOINT LeftToe_End
						{
							OFFSET -1.784700 -0.561700 9.474800
							CHANNELS 3 Xrotation Yrotation Zrotation
							End Site
							{
								OFFSET 0 0 0
							}
						}
					}
				}
			}
		}
	}
	JOINT RightUpLeg_virtual
	{
		OFFSET 0.000000 0.000000 0.000000
		CHANNELS 3 Xrotation Yrotation Zrotation
		JOINT RightUpLeg
		{
			OFFSET -12.883000 -6.336304 -1.092800
			CHANNELS 3 Xrotation Yrotation Zrotation
			JOINT RightLeg
			{
				OFFSET -0.524587 -46.096825 9.782800
				CHANNELS 3 Xrotation Yrotation Zrotation
				JOINT RightFoot
				{
					OFFSET 0.524587 -53.427383 -12.948300
					CHANNELS 3 Xrotation Yrotation Zrotation
					JOINT RightToeBase
					{
						OFFSET -0.192200 -14.009700 16.364100
						CHANNELS 3 Xrotation Yrotation Zrotation
						JOINT RightToe_End
						{
							OFFSET 1.784700 -0.561700 9.474800
							CHANNELS 3 Xrotation Yrotation Zrotation
							End Site
							{
								OFFSET 0 0 0
							}
						}
					}
				}
			}
		}
	}
	JOINT Spine_virtual
	{
		OFFSET 0.000000 0.000000 0.000000
		CHANNELS 3 Xrotation Yrotation Zrotation
		JOINT Spine
		{
			OFFSET 0.072000 7.257294 -0.789700
			CHANNELS 3 Xrotation Yrotation Zrotation
			JOINT Spine1
			{
				OFFSET 0.000000 12.508769 -0.658067
				CHANNELS 3 Xrotation Yrotation Zrotation
				JOINT Spine1_split
				{
					OFFSET 0.000000 12.508769 -0.658067
					CHANNELS 3 Xrotation Yrotation Zrotation
					JOINT Spine2
					{
						OFFSET 0.000000 12.508769 -0.658067
						CHANNELS 3 Xrotation Yrotation Zrotation
						JOINT Neck_virtual
						{
							OFFSET 0.000000 0.000000 0.000000
							CHANNELS 3 Xrotation Yrotation Zrotation
							JOINT Neck
							{
								OFFSET 0.000000 14.033295 7.520400
								CHANNELS 3 Xrotation Yrotation Zrotation
								JOINT Head
								{
									OFFSET 0.000000 8.198502 5.703100
									CHANNELS 3 Xrotation Yrotation Zrotation
									JOINT HeadTop_End
									{
										OFFSET 0.000000 17.760803 13.332701
										CHANNELS 3 Xrotation Yrotation Zrotation
										End Site
										{
											OFFSET 0 0 0
										}
									}
								}
							}
						}
						JOINT LeftShoulder_virtual
						{
							OFFSET 0.000000 0.000000 0.000000
							CHANNELS 3 Xrotation Yrotation Zrotation
							JOINT LeftShoulder
							{
								OFFSET 6.292450 5.785301 -0.669000
								CHANNELS 3 Xrotation Yrotation Zrotation
								JOINT LeftShoulder_split
								{
									OFFSET 6.292450 5.785301 -0.669000
									CHANNELS 3 Xrotation Yrotation Zrotation
									JOINT LeftArm
									{
										OFFSET 13.907140 -6.093903 1.965100
										CHANNELS 3 Xrotation Yrotation Zrotation
										JOINT LeftForeArm
										{
											OFFSET 34.140198 0.000000 0.000000
											CHANNELS 3 Xrotation Yrotation Zrotation
											JOINT LeftHand
											{
												OFFSET 40.960209 0.000000 0.000000
												CHANNELS 3 Xrotation Yrotation Zrotation
												End Site
												{
													OFFSET 0 0 0
												}
											}
										}
									}
								}
							}
						}
						JOINT RightShoulder_virtual
						{
							OFFSET 0.000000 0.000000 0.000000
							CHANNELS 3 Xrotation Yrotation Zrotation
							JOINT RightShoulder
							{
								OFFSET -6.292450 5.785301 -0.669000
								CHANNELS 3 Xrotation Yrotation Zrotation
								JOINT RightShoulder_split
								{
									OFFSET -6.292450 5.785301 -0.669000
									CHANNELS 3 Xrotation Yrotation Zrotation
									JOINT RightArm
									{
										OFFSET -13.907140 -6.093903 1.965100
										CHANNELS 3 Xrotation Yrotation Zrotation
										JOINT RightForeArm
										{
											OFFSET -34.140198 0.000000 0.000000
											CHANNELS 3 Xrotation Yrotation Zrotation
											JOINT RightHand
											{
												OFFSET -40.960209 0.000000 0.000000
												CHANNELS 3 Xrotation Yrotation Zrotation
												End Site
												{
													OFFSET 0 0 0
												}
											}
										}
									}
								}
							}
						}
					}
				}
			}
		}
	}
}
MOTION
Frames: 4
Frame Time: 0.03333333
11.678359 100.053116 92.387932 0.000000 0.000000 0.000000 162.803187 50.578008 -174.840289 -54.926428 2.440758 14.557542 30.016950 -30.577507 5.707351 6.390135 0.985518 -13.877842 1.268028 1.677150 -5.428415 0.000000 0.000000 0.000000 165.261577 45.184273 -178.920097 -19.901308 -30.229707 -21.567890 32.830151 -4.696488 3.463913 -12.465296 -6.013728 16.833052 3.147338 -0.639424 -0.342360 0.000000 0.000000 0.000000 164.834116 50.166684 -176.825907 16.729664 4.214894 -2.610625 10.975841 13.699836 -12.185282 0.571840 -6.167213 1.411409 0.000000 0.000000 0.000000 3.866000 13.057966 -10.318504 5.577814 4.174178 6.029674 -3.729300 9.595628 -7.693387 0.000000 0.000000 0.000000 2.784669 13.696405 -11.161920 0.921835 19.675721 -5.322025 -5.972518 -1.880070 0.012126 21.654196 33.757469 -67.218439 -56.837836 -27.462989 -29.389556 0.000000 0.000000 0.000000 2.467108 12.883904 -11.113124 5.789841 14.289696 2.081688 -7.819896 -2.782474 0.308122 -55.838620 32.020063 69.586521 35.050349 30.295208 0.131304 0.000000 0.000000 0.000000 
11.139030 100.267708 89.420570 0.000000 0.000000 0.000000 161.716736 55.408404 -174.094227 -52.982037 1.276830 16.879023 33.110025 -29.791342 5.821679 3.923830 1.408654 -13.543351 1.546701 1.563104 -5.639066 0.000000 0.000000 0.000000 164.290529 49.576307 -178.059849 -23.709731 -28.347582 -21.788741 32.703841 -2.932713 2.591987 -8.383985 -4.238879 16.608599 1.064169 -0.273762 -0.395099 0.000000 0.000000 0.000000 163.666605 54.935529 -176.154704 16.439521 4.519477 -1.641136 10.582311 13.086228 -12.301646 0.282477 -6.187600 1.483440 0.000000 0.000000 0.000000 3.638922 12.397169 -10.401075 4.403646 4.580729 5.243954 -2.634314 8.975338 -7.393428 0.000000 0.000000 0.000000 2.406393 13.060134 -11.247805 1.379918 18.074467 -8.142689 -6.131395 -1.465877 0.980453 16.271440 31.059807 -60.188870 -51.522340 -29.059443 -28.864301 0.000000 0.000000 0.000000 2.097449 12.207917 -11.151857 5.618835 13.532309 2.474504 -9.457921 -2.286091 0.467181 -48.342515 28.934491 66.851330 34.989980 37.700954 -0.527578 0.000000 0.000000 0.000000 
10.370944 99.977997 86.088089 0.000000 0.000000 0.000000 160.523912 60.284179 -173.196699 -50.846609 -0.020177 18.920174 37.183403 -28.392605 6.139452 1.017658 2.092347 -12.954342 1.777176 1.530737 -5.631964 0.000000 0.000000 0.000000 163.142033 54.152830 -176.879893 -27.340086 -25.583590 -21.818933 32.797219 -0.838133 1.533810 -4.508796 -2.328199 18.242805 -1.797739 -0.142624 -0.101847 0.000000 0.000000 0.000000 162.502167 60.088985 -175.530548 16.155827 4.609069 -0.999013 10.020276 12.257892 -12.387999 0.144299 -5.805880 1.464962 0.000000 0.000000 0.000000 3.255198 11.637846 -10.488681 3.169856 4.864425 5.277270 -1.945359 8.251666 -6.540204 0.000000 0.000000 0.000000 1.798270 12.316374 -11.273815 1.569862 15.625151 -10.578695 -6.442256 -1.148718 1.665530 10.253012 27.730297 -51.472678 -45.329848 -30.808296 -27.844794 0.000000 0.000000 0.000000 1.406783 11.392339 -11.106684 5.327665 12.146926 2.806522 -11.123540 -1.664881 -0.076045 -40.699588 24.664267 62.628860 34.689981 48.232983 -0.974119 0.000000 0.000000 0.000000 
9.437476 99.329529 82.327072 0.000000 0.000000 0.000000 158.632236 64.987542 -171.364119 -48.598534 -1.214759 20.377010 41.061455 -26.161612 6.326552 -2.359182 3.012755 -11.886191 1.544774 1.598350 -5.347602 0.000000 0.000000 0.000000 161.488539 58.929595 -174.988490 -30.326071 -22.153688 -21.434389 33.314873 1.240186 0.356980 -2.287655 -0.802336 20.561523 -4.013325 -0.255685 0.598421 0.000000 0.000000 0.000000 160.937821 65.360102 -174.358993 15.894549 4.370633 -0.670725 9.244889 11.179561 -12.413187 0.260800 -4.929633 1.625043 0.000000 0.000000 0.000000 2.718065 10.727345 -10.566097 2.040912 4.950160 5.855532 -2.204239 7.254481 -5.074219 0.000000 0.000000 0.000000 0.901882 11.423995 -11.219393 1.432876 12.646085 -12.035173 -6.625566 -0.793219 2.090700 3.653113 23.428027 -41.993881 -38.115888 -32.686376 -25.884638 0.000000 0.000000 0.000000 0.415050 10.415726 -10.989190 4.955339 10.265058 2.996094 -12.233848 -0.491536 -1.074225 -34.132538 19.180027 57.640636 33.677682 61.129373 -0.754470 0.000000 0.000000 0.000000 
